{"asset":{"version":"2.0","generator":"THREE.GLTFExporter"},"scenes":[{"nodes":[0],"name":"AuxScene"}],"scene":0,"nodes":[{"mesh":0}],"bufferViews":[{"buffer":0,"byteOffset":0,"byteLength":6948,"target":34962,"byteStride":12},{"buffer":0,"byteOffset":6948,"byteLength":6948,"target":34962,"byteStride":12}],"buffers":[{"byteLength":13896,"uri":"data:application/octet-stream;base64,"}],"accessors":[{"bufferView":0,"componentType":5126,"count":579,"max":[43.647613525390625,4.5,4.406974792480469],"min":[-16.35239028930664,0.30000001192092896,-29.64302635192871],"type":"VEC3"},{"bufferView":1,"componentType":5126,"count":579,"max":[0.16007117927074432,1,0],"min":[-0.5546786785125732,0.8311915993690491,-0.5541277527809143],"type":"VEC3"}],"materials":[{"pbrMetallicRoughness":{"baseColorFactor":[0.5019607843137255,0.5019607843137255,0.5019607843137255,1],"metallicFactor":0,"roughnessFactor":1}}],"meshes":[{"primitives":[{"mode":4,"attributes":{"POSITION":0,"NORMAL":1},"material":0}]}]}