{"asset":{"version":"2.0","generator":"THREE.GLTFExporter"},"scenes":[{"nodes":[0],"name":"AuxScene"}],"scene":0,"nodes":[{"mesh":0}],"bufferViews":[{"buffer":0,"byteOffset":0,"byteLength":1764,"target":34962,"byteStride":12},{"buffer":0,"byteOffset":1764,"byteLength":1764,"target":34962,"byteStride":12}],"buffers":[{"byteLength":3528,"uri":"data:application/octet-stream;base64,"}],"accessors":[{"bufferView":0,"componentType":5126,"count":147,"max":[14.205750465393066,0.30000001192092896,1.6615509986877441],"min":[-8.694249153137207,0.30000001192092896,-20.48845100402832],"type":"VEC3"},{"bufferView":1,"componentType":5126,"count":147,"max":[0,1,0],"min":[0,1,0],"type":"VEC3"}],"materials":[{"pbrMetallicRoughness":{"baseColorFactor":[0.5019607843137255,0.5019607843137255,0.5019607843137255,1],"metallicFactor":0,"roughnessFactor":1}}],"meshes":[{"primitives":[{"mode":4,"attributes":{"POSITION":0,"NORMAL":1},"material":0}]}]}